# xmcd
#
# Track frame offsets:
#	150
#	25689
#	50066
#	86293
#	96645
#	117834
#	155262
#	170339
#	216391
#	244480
#	269007
#	294135
#	319074
#
# Disc length: 4524 seconds
#
# Revision: 0
# Processed by: cddbd v1.5.2PL0 Copyright (c) Steve Scherf et al.
# Submitted via: audiograbber 1.82.02
#
DISCID=b911aa0d
DTITLE=Misc - Blues and ballads
DYEAR=2000
DGENRE=Blues
TTITLE0=Barry Levenson/Jake Sampson - Real What You Saw
TTITLE1=Corey Stevens - Getaway
TTITLE2=Mick Moody/Bernie Marsden - A Mind To Gen Even
TTITLE3=Sean Costello - Jumpin` Salty
TTITLE4=Jay Gordon - Drippin Blues
TTITLE5=Gov`t Mule - No Need To Suffer
TTITLE6=The Mick Pini Band - Looking For Somebody
TTITLE7=Walter Trout And The Free Radicals - The Reason I`m Gone
TTITLE8=T. W. Henderson and The Blues of Cain - It Washn`t Me Who Brought The Tea
TTITLE8=rs
TTITLE9=Vargas Blues Band - Buenos Airiers Blues
TTITLE10=Bernanrd Allison - Love In Free
TTITLE11=Gene Deer - Living With The Blues
TTITLE12=Larry Carlton - Crazy Mama
EXTD=
EXTT0=
EXTT1=
EXTT2=
EXTT3=
EXTT4=
EXTT5=
EXTT6=
EXTT7=
EXTT8=
EXTT9=
EXTT10=
EXTT11=
EXTT12=
PLAYORDER=
